<svg id="Warstwa_1" data-name="Warstwa 1" xmlns="http://www.w3.org/2000/svg" viewBox="0 0 1715.96 1336.52"><defs><style>.cls-1{fill:#fff;}</style></defs><path class="cls-1" d="M1440.84,697.74h0c-5.22-7.12-10.53-14.16-16.23-20.9-32.07-37.83-83.43-54.39-129.29-72.18,13.07-18.34,17.48-32.84-3.72-50.81-18.54-15.71-30.75,3.36-38.77,33-43.07-19.16-86.17-41.41-126.14-66.89-51-32.51-93.19-74.81-142-109.91-40-28.75-84.4-59.6-132.82-72-18.15-4.66-37.89-5.35-55.28,1.64A79.16,79.16,0,0,0,775,352.88c-36.25,30.45-63.79,69.47-92.7,106.56C641.86,511.3,605.84,566.7,577,625.87c-27.73,57-49.54,118-56.25,181.33-7.07,66.68,6.56,125.68,34.9,185.55,6.85,14.44,10.87,29.17,14.5,44.69.8,3.38.93,7.42,2.7,10.61,2.38,4.29,7,5,11.16,6.74,4.7,1.92,9.49,3.66,14.29,5.35,74.31,26.15,145.64,60.12,222.42,79,177.59,43.69,384.82,26.26,537.68-80.81,22.76-15.93,44.54-35,59.09-58.92L1383.15,951l15.32-21.31c38.35,18.76,61.26,38.62,81.38,3.32,14.59-25.6-19.38-32.65-60.15-32.84l8.8-12.2c21.94-30.47,62.2-82.15,54.52-124.82,90.45.38,151.57,9.87,155.93-79.78C1642.8,604.11,1539.44,643.13,1440.84,697.74ZM1274.5,631.67c59.37,29.73,113.85,59.64,121.43,72.73a56.75,56.75,0,0,0,10.78,12.92c-11.25,6.67-22.26,13.38-32.84,20l-1.56,1a110.79,110.79,0,0,0-10.68-18.86c-12.63-18.09-58.65-35.14-109.36-52.51A220.85,220.85,0,0,1,1274.5,631.67Zm-498,388.69L688.58,885.72,632.9,922.64l-20.08-31.15,55.91-36.18L637.31,807.2l16.9-12.77,32,49.55,56.85-36.78,20.11,29.06-57.38,38L792.93,1009Zm612.66-6.77s-16.3,21.51-86.49,31.54c-90.52,12.93-206.16-6.64-288.21-47C910,946.65,854.33,861.71,799.24,763.68c-55.3-98.4-114.6-223.63-59.39-334.83,0,0,49.15-104.45,160.28-28S1110.39,554,1110.39,554s66.84,30,135.94,63.71c-2.49,15.26-4.28,31.08-5.55,45.26-42.49-14.46-86.74-29.2-116.4-45C1056.24,581.66,910.66,424.31,820,441.13c0,0-40.18-4.89-28.6,66.44,23.21,143.11,106.59,283.76,217,377.56,50,42.46,114.94,61.47,180,58.09,38.76-2,90.9-10.71,128.73-34.2,24.63-.06,45.42,5.44,63.25,12.55l-24.18,45.58ZM1446.36,809c-24.75,66.8-33.84,52-33.84,52l-21.19,39.94c-33.64,1.89-65.53,6.53-73.7,7.77,17.34-10.86,31.63-24.86,40.17-42.79,18.5-38.86,25-69.81,22.67-95.61a501.53,501.53,0,0,1,69.52-6.79C1453.79,775,1453.6,789.42,1446.36,809Z" transform="translate(-166.02 -334.46)"/><path class="cls-1" d="M1103.88,740.87Z" transform="translate(-166.02 -334.46)"/><path class="cls-1" d="M332.25,1309c101,0,166.68,73.29,166.68,163.55,0,45.58-17.88,86.69-48.26,114.84l42.45,46c-12.52,12.51-25.92,25-38.88,37.53L406.87,1620a188.26,188.26,0,0,1-74.62,15.19C230.81,1635.23,166,1562,166,1472.58,166,1382.32,230.81,1309,332.25,1309Zm0,271.69a97.35,97.35,0,0,0,32.17-5.36L321.52,1528,360,1490.9l46.92,51.39c16.54-16.54,27.26-40.66,27.26-69.71,0-66.58-48.71-109.48-101.88-109.48-53.62,0-101.44,42.9-101.44,109.48S278.63,1580.72,332.25,1580.72Z" transform="translate(-166.02 -334.46)"/><path class="cls-1" d="M708.05,1309c97,0,166.67,73.29,166.67,163.1s-69.71,163.1-166.67,163.1c-97.42,0-166.23-73.28-166.23-163.1S610.63,1309,708.05,1309Zm0,271.24c53.17,0,101.88-41.56,101.88-108.14s-48.71-109-101.88-109c-53.63,0-101.44,42.45-101.44,109S654.42,1580.27,708.05,1580.27Z" transform="translate(-166.02 -334.46)"/><path class="cls-1" d="M1080.27,1309c101,0,166.68,73.29,166.68,163.55,0,45.58-17.87,86.69-48.26,114.84l42.45,46c-12.51,12.51-25.92,25-38.88,37.53L1154.9,1620a188.31,188.31,0,0,1-74.63,15.19C978.84,1635.23,914,1562,914,1472.58,914,1382.32,978.84,1309,1080.27,1309Zm0,271.69a97.41,97.41,0,0,0,32.18-5.36l-42.9-47.37L1108,1490.9l46.92,51.39c16.53-16.54,27.26-40.66,27.26-69.71,0-66.58-48.71-109.48-101.89-109.48-53.62,0-101.43,42.9-101.43,109.48S1026.65,1580.72,1080.27,1580.72Z" transform="translate(-166.02 -334.46)"/><path class="cls-1" d="M1456.07,1309c97,0,166.68,73.29,166.68,163.1s-69.71,163.1-166.68,163.1c-97.41,0-166.23-73.28-166.23-163.1S1358.66,1309,1456.07,1309Zm0,271.24c53.18,0,101.88-41.56,101.88-108.14s-48.7-109-101.88-109c-53.62,0-101.43,42.45-101.43,109S1402.45,1580.27,1456.07,1580.27Z" transform="translate(-166.02 -334.46)"/><path class="cls-1" d="M1852,1385c-18.77-10.28-48.26-21.45-70.6-21.45-29.94,0-51.84,13.4-51.84,34.41,0,21.89,25.47,34.85,59.88,47.81,72.84,28.6,93.84,62.11,92.5,101-1.34,56.3-51.83,88.92-113.5,88.47-45.58-.44-84.9-19.66-105-35.74L1686.2,1553c17.43,13,47.81,28.6,78.2,28.6,27.7,0,57.2-10.72,57.2-34,0-25.92-35.75-37.53-73.29-54.07-48.7-22.34-79.54-49.6-79.54-95.62,0-44.69,38-88.93,107.25-88.93,36.64,0,78.64,17,95.18,25.47Z" transform="translate(-166.02 -334.46)"/></svg>