<svg xmlns="http://www.w3.org/2000/svg" viewBox="0 0 111.58 88.28"><defs><style>.cls-1{fill:#fff;}</style></defs><g id="Layer_2" data-name="Layer 2"><g id="Warstwa_6" data-name="Warstwa 6"><g id="Warstwa_2" data-name="Warstwa 2"><path class="cls-1" d="M50,8C40.31,8,35.45,15.42,35.45,24.6S40.31,41.24,50,41.24,64.55,33.78,64.55,24.6,59.74,8,50,8Zm0,26.67c-4.22,0-6.29-4.5-6.29-10s2.07-10,6.29-10,6.26,4.5,6.26,10S54.12,34.63,50,34.63Z"/><path class="cls-1" d="M25.34,37.9c3.39-3,5.07-7.87,5.07-13.3C30.41,15.42,25.6,8,15.89,8S1.31,15.42,1.31,24.6,6.17,41.24,15.89,41.24a17.6,17.6,0,0,0,2.46-.17l.34.66a3.83,3.83,0,1,0,6.84-3.46Zm-4.22-7.39a3.83,3.83,0,0,0-5.94,4.08c-3.75-.48-5.59-4.77-5.59-10,0-5.53,2.07-10,6.3-10s6.25,4.5,6.25,10A16,16,0,0,1,21.12,30.51Z"/><path class="cls-1" d="M67.52,42.72C57.81,42.72,53,50.19,53,59.37S57.81,76,67.52,76a17.47,17.47,0,0,0,2.77-.22h0c6.49-1.07,10.28-6,11.4-12.27h0a24.26,24.26,0,0,0,.35-4.14C82.05,50.19,77.24,42.72,67.52,42.72Zm0,26.68c-4.22,0-6.29-4.5-6.29-10s2.07-10,6.29-10,6.26,4.49,6.26,10S71.62,69.4,67.52,69.4Z"/><path class="cls-1" d="M42.79,72.7c3.41-3,5.1-7.89,5.1-13.33,0-9.18-4.81-16.65-14.53-16.65S18.79,50.19,18.79,59.37,23.65,76,33.36,76a17.17,17.17,0,0,0,2.43-.17l.34.67a3.81,3.81,0,0,0,3.42,2.1A3.83,3.83,0,0,0,43,73.05Zm-4.21-7.38a3.83,3.83,0,0,0-6,4c-3.73-.5-5.56-4.78-5.56-10,0-5.54,2.08-10,6.3-10s6.26,4.5,6.26,10A15.81,15.81,0,0,1,38.58,65.32Z"/><path class="cls-1" d="M100.56,55.14c-2.72-.69-4.76-1.12-5.18-2.69a2.55,2.55,0,0,1-.08-.64c0-1.75,1.48-2.79,3.64-2.79a5.55,5.55,0,0,1,1.38.17,8.17,8.17,0,0,1,2.85,1.45A5.1,5.1,0,0,0,106.63,52C109,52,110,50.73,110,49a5.07,5.07,0,0,0-2.23-4.07A14.93,14.93,0,0,0,99,42.41c-7.6,0-12,4.45-12,10.07a8,8,0,0,0,1.6,5C90.47,60,93.72,61.22,97,62c2.69.63,6.2,1.08,6.2,4.22,0,2.43-2.07,3.51-4.54,3.51a6.74,6.74,0,0,1-5-2.11,5.22,5.22,0,0,0-3.91-1.71c-2.39,0-3.33,1.21-3.33,3.1,0,4.73,6,7.34,12,7.34,7.87,0,13.09-4.32,13.09-10.8C111.58,58.24,104.92,56.26,100.56,55.14Z"/><circle class="cls-1" cx="3.83" cy="3.83" r="3.83"/><circle class="cls-1" cx="44.43" cy="84.44" r="3.83"/></g></g></g></svg>